<svg width="26" height="26" viewBox="0 0 26 26" xmlns="http://www.w3.org/2000/svg">
  <path d="M13 1C14.1046 1 15 1.89543 15 3V4.5H17C17.5523 4.5 18 4.94772 18 5.5V6.5C18 7.05228 17.5523 7.5 17 7.5H9C8.44772 7.5 8 7.05228 8 6.5V5.5C8 4.94772 8.44772 4.5 9 4.5H11V3C11 1.89543 11.8954 1 13 1Z" fill="black"/>
  <path d="M19 9C19.5523 9 20 9.44772 20 10V20C20 20.5523 19.5523 21 19 21H7C6.44772 21 6 20.5523 6 20V10C6 9.44772 6.44772 9 7 9H19ZM13 17C14.1046 17 15 16.1046 15 15C15 13.8954 14.1046 13 13 13C11.8954 13 11 13.8954 11 15C11 16.1046 11.8954 17 13 17Z" fill="black"/>
  <path fill-rule="evenodd" clip-rule="evenodd" d="M4 10C3.44772 10 3 10.4477 3 11V20C3 21.6569 4.34315 23 6 23H20C21.6569 23 23 21.6569 23 20V11C23 10.4477 22.5523 10 22 10H4ZM13 15C14.6569 15 16 13.6569 16 12C16 10.3431 14.6569 9 13 9C11.3431 9 10 10.3431 10 12C10 13.6569 11.3431 15 13 15Z" fill="black"/>
</svg>